<svg width="106" height="79" viewBox="0 0 106 79" fill="none" xmlns="http://www.w3.org/2000/svg">
<path fill-rule="evenodd" clip-rule="evenodd" d="M4.54332 64.7083C6.14358 64.3307 8.17165 64.3307 9.2649 65.7154C9.47088 65.2905 9.62932 64.7083 10.1997 64.6296C10.7067 64.5352 11.4831 64.6139 11.594 65.2433C11.7841 66.0773 11.5623 66.9742 11.6257 67.8238C11.6098 68.6421 11.895 69.539 11.4197 70.2628C10.9444 70.7663 10.1205 70.782 9.48672 70.5932C8.8688 70.4359 8.74204 69.7435 8.63113 69.2085C8.47269 68.5319 8.34593 67.6822 7.63294 67.399C6.71398 67.0056 5.55735 67.2259 4.8602 67.9183C4.02046 68.8938 3.79864 70.247 3.79864 71.4744C3.79864 72.7017 3.94123 73.992 4.70176 74.999C5.49397 76.1634 7.44281 76.2735 8.39347 75.2508C8.99555 74.527 8.63113 73.5042 8.9797 72.7017C9.70854 71.6317 11.6257 71.9779 11.9743 73.2052C12.2595 74.2437 12.1169 75.3924 11.5782 76.3207C10.8335 77.5009 9.48672 78.2247 8.10827 78.4292C6.52385 78.7124 4.79682 78.7282 3.32331 77.9729C1.88148 77.2963 0.86745 75.8959 0.407967 74.3853C-0.146582 72.6073 -0.114894 70.6404 0.376278 68.8624C0.86745 66.9112 2.48356 65.1646 4.54332 64.7083Z" fill="#025193"/>
<path fill-rule="evenodd" clip-rule="evenodd" d="M47.608 0.257955C50.8243 -0.465854 54.2467 0.383834 56.9719 2.17762C58.5722 3.2004 59.9189 4.60081 61.0597 6.14284C61.5192 6.91385 62.0896 7.77927 61.7727 8.70764C60.933 8.83352 60.1091 8.50308 59.2535 8.56602C57.6215 8.59749 56.1005 9.66747 55.3716 11.0994C54.4844 12.7987 54.3418 14.7813 54.3893 16.6695C54.421 18.3689 54.928 20.084 56.0688 21.4058C57.4155 22.995 59.4911 23.8132 61.5509 24.002C64.3078 24.1909 67.2865 23.5457 69.3621 21.6103C71.2793 19.8165 72.0556 17.1259 72.0873 14.5453C72.1348 11.6186 71.406 8.70764 70.4078 5.95402C69.9008 4.44346 68.7917 3.2476 68.1421 1.81572C68.1896 1.68984 68.3164 1.48528 68.3956 1.3594C68.6808 1.3594 69.0135 1.26499 69.2037 1.53249C76.999 9.41571 84.7786 17.2832 92.5581 25.1664C93.3978 26.0791 94.3802 27.1333 94.2693 28.4708C93.9365 29.824 92.8908 30.831 91.9402 31.7909C84.6043 39.1234 77.2684 46.4401 69.9325 53.7884C69.4255 54.2604 68.9818 54.9213 68.253 55.0157C68.2055 54.8898 68.0946 54.6695 68.0312 54.5436C68.1896 53.4894 68.76 52.5925 69.172 51.6327C69.6315 50.5942 70.1543 49.6186 70.4712 48.5486C70.9148 46.9751 71.4535 45.4016 71.5328 43.7494C71.5961 41.8298 71.4694 39.9101 71.2 38.0062C70.899 36.0708 69.8533 34.2612 68.253 33.1126C66.0982 31.5076 63.2462 30.894 60.5844 31.366C58.3187 31.8381 56.5124 33.5532 55.4033 35.5043C54.1675 37.6128 53.9457 40.1776 54.516 42.5221C54.8329 43.7337 55.2766 44.9453 56.0529 45.9523C56.9244 47.0853 58.588 47.7147 59.9665 47.1954C60.4101 47.0538 60.8537 46.8807 61.2974 47.0066C62.0579 47.6832 61.6143 48.8004 61.3132 49.6028C60.315 51.554 58.8574 53.3792 56.8768 54.465C54.3734 55.8654 51.4264 56.5105 48.5745 56.0542C45.4373 55.6451 42.617 53.8356 40.7474 51.3337C38.038 47.7933 36.8497 43.3718 36.0575 39.0447C35.297 34.3084 35.0593 29.4935 35.3603 24.7258C35.7089 20.147 36.4694 15.5838 37.9905 11.2567C38.9095 8.59749 40.177 6.03269 41.9991 3.89274C43.4251 2.14615 45.3898 0.745739 47.608 0.257955Z" fill="#025193"/>
<path fill-rule="evenodd" clip-rule="evenodd" d="M28.2939 2.66554C28.7693 2.24069 29.1495 1.72144 29.7199 1.40674C29.9259 1.43821 30.1477 1.50115 30.3537 1.56409C30.4488 2.2879 29.9101 2.82289 29.5615 3.40508C28.7851 4.66388 28.0404 5.95415 27.2641 7.21295C25.0776 10.7376 24.0318 14.7972 23.2713 18.8254C22.9227 21.1069 22.6217 23.42 22.5425 25.7488C22.2256 30.2017 22.6375 34.6862 23.6199 39.0448C24.5547 42.8212 25.8698 46.5347 27.8978 49.8862C28.6584 51.3181 29.5456 52.687 30.3854 54.0874C30.5914 54.3549 30.5438 54.7011 30.528 55.0158C29.8308 55.1889 29.3555 54.6224 28.9119 54.1819C21.0214 46.4717 13.1152 38.856 5.27225 31.1773C4.46419 30.3276 3.51354 29.2891 3.59276 28.0303C3.90964 26.3782 5.35147 25.2924 6.47641 24.1595C13.7331 16.9686 21.0214 9.82495 28.2939 2.66554Z" fill="#DD312A"/>
<path fill-rule="evenodd" clip-rule="evenodd" d="M62.9137 65.3537C63.7376 64.5355 64.9893 64.4253 66.0984 64.4568C67.0173 64.4725 67.9997 64.6456 68.6968 65.2593C69.2355 65.7471 69.4256 66.644 69.0771 67.3048C68.5859 68.0916 67.3659 68.1545 66.6529 67.6353C66.2726 67.352 66.3043 66.8328 66.1934 66.4079C65.9241 66.4079 65.5755 66.345 65.3854 66.5653C64.9576 67.0373 65.0843 67.7297 65.0685 68.3119C65.6547 68.2961 66.2251 68.2175 66.8113 68.2804C67.7462 68.5479 67.7778 69.9955 67.0332 70.499C66.4311 70.6249 65.7973 70.4833 65.1794 70.5462C65.1319 72.3872 65.1002 74.2125 65.1952 76.0535C65.8132 76.1164 66.4152 75.8961 67.0173 76.0063C67.8095 76.2108 67.9997 77.2808 67.6194 77.9102C67.3184 78.3508 66.7638 78.4295 66.2726 78.398C64.6407 78.2721 62.9612 78.2564 61.3134 78.3665C60.7113 78.398 59.9983 78.5081 59.523 78.0204C59.0794 77.3752 59.2378 76.258 60.0775 76.0063C60.6955 75.9119 61.2975 76.1322 61.8838 76.0535C62.0264 74.8891 61.9313 73.709 61.9472 72.5446C61.9313 71.868 62.0739 71.1284 61.7729 70.4833C61.1866 70.499 60.6004 70.6249 60.03 70.499C59.2695 70.1843 59.2853 69.0514 59.7607 68.5007C60.3944 68.0286 61.25 68.3276 61.9947 68.3119C62.0739 67.2891 62.1056 66.109 62.9137 65.3537Z" fill="#025193"/>
<path fill-rule="evenodd" clip-rule="evenodd" d="M31.5262 68.4064C32.4135 67.9029 33.5067 67.8872 34.4574 68.1861C35.9943 68.7211 36.6122 70.8768 35.5981 72.1199C34.8535 72.7965 33.4116 72.765 32.8729 71.8524C32.6036 71.4275 32.7303 70.9083 32.762 70.4205C32.3184 70.5621 31.8589 70.7195 31.5737 71.0814C31.0192 71.7737 30.9558 72.7178 30.9558 73.5832C30.9875 74.4172 30.8607 75.2826 31.0667 76.1008C31.6529 76.1008 32.2233 75.9435 32.8096 75.9749C33.9503 76.211 33.9028 78.2565 32.6986 78.3667C31.5262 78.4611 30.3537 78.2251 29.1812 78.2565C28.1197 78.2251 27.0739 78.4925 26.0282 78.3509C25.537 78.225 25.3628 77.7058 25.3628 77.2652C25.3311 76.7774 25.4737 76.1323 26.0124 75.9907C26.5511 75.9435 27.0898 76.0851 27.6285 76.1008C27.7552 75.2039 27.676 74.3228 27.6919 73.4259C27.676 72.4188 27.7394 71.3961 27.6285 70.4048C27.0898 70.3733 26.5511 70.4677 26.0282 70.4992C24.9667 70.1058 25.1885 68.1704 26.3451 68.1232C27.581 68.1547 28.801 68.1704 30.021 68.1704C30.1636 68.7998 30.1794 69.4449 30.1477 70.1058C30.4963 69.4607 30.8766 68.7998 31.5262 68.4064Z" fill="#025193"/>
<path fill-rule="evenodd" clip-rule="evenodd" d="M43.0131 68.2801C43.9796 67.8553 45.1362 67.8867 46.071 68.3273C47.196 68.941 47.6396 70.4043 47.2118 71.5845C46.7682 72.7488 44.9461 72.9377 44.2173 71.9464C43.8687 71.5058 43.9796 70.9393 44.0271 70.4358C42.8864 70.5932 42.3001 71.7418 42.2684 72.7803C42.2209 73.866 42.205 74.9517 42.2684 76.006C42.8705 76.1791 43.4567 75.9116 44.0588 75.9745C45.2155 76.1948 45.1838 78.2561 43.9479 78.3662C42.8864 78.4606 41.8406 78.2561 40.7791 78.2561C39.7175 78.2089 38.6718 78.3977 37.6102 78.382C36.4694 78.3977 36.3585 76.7613 36.9923 76.1161C37.5785 75.8172 38.2598 76.1004 38.8778 76.1004C39.0204 75.1563 38.9411 74.1965 38.957 73.2524C38.9411 72.3083 39.0045 71.3484 38.8778 70.4043C38.3549 70.3729 37.8003 70.4673 37.2775 70.4673C36.517 70.184 36.4536 69.0826 36.8972 68.5161C37.2933 67.9654 38.0697 68.107 38.6718 68.1228C39.5591 68.2172 40.4305 68.107 41.3178 68.1385C41.4445 68.7836 41.4445 69.4288 41.4128 70.0739C41.8089 69.3816 42.2526 68.642 43.0131 68.2801Z" fill="#025193"/>
<path fill-rule="evenodd" clip-rule="evenodd" d="M80.9919 68.1387C81.5306 67.9971 82.101 68.123 82.6397 68.123C83.6696 68.2174 84.6836 68.0129 85.6976 68.1073C85.9353 68.9412 85.8561 69.8066 85.8561 70.6406C85.8719 71.8679 85.8402 73.0795 85.8719 74.3069C85.8561 74.8891 86.1254 75.5184 86.68 75.7387C87.3137 75.9748 88.1535 75.8804 88.5654 75.2982C88.914 74.7474 88.9457 74.0708 88.9932 73.4257C89.0091 72.4344 89.0249 71.4274 88.9457 70.436C88.2961 70.3731 87.5356 70.5777 86.9969 70.1528C86.6166 69.6021 86.6166 68.7367 87.1553 68.2804C87.5039 67.9657 88.0109 68.0758 88.4545 68.0758C89.6428 68.2017 90.8629 68.0286 92.0512 68.0915C92.1146 68.359 92.2096 68.6108 92.2255 68.8783C92.2888 71.2543 92.1621 73.6303 92.2888 76.0062C92.986 76.1164 93.8099 75.7702 94.412 76.2108C94.8081 76.7772 94.8081 77.6899 94.2852 78.1619C93.8099 78.6025 93.1444 78.3507 92.574 78.3507C91.5917 78.2249 90.5935 78.4452 89.5795 78.3822C89.5319 77.8315 89.5319 77.2808 89.5636 76.7458C88.5021 78.5396 85.9353 79.1847 84.129 78.1934C83.3685 77.8 82.8298 77.029 82.7189 76.1636C82.4812 74.2597 82.7031 72.34 82.5446 70.4203C81.9584 70.3574 81.3563 70.4833 80.7701 70.3259C80.0412 69.8381 80.1838 68.5164 80.9919 68.1387Z" fill="#025193"/>
<path fill-rule="evenodd" clip-rule="evenodd" d="M96.3608 68.0915C97.5016 68.123 98.6582 68.2332 99.799 68.1073C100.053 68.7052 99.9891 69.3503 100.005 69.9797C100.401 69.429 100.702 68.7681 101.32 68.422C102.302 67.824 103.602 67.824 104.631 68.359C105.709 68.894 106.089 70.263 105.851 71.3801C105.566 72.6862 103.554 73.0166 102.778 71.9623C102.445 71.5218 102.588 70.9396 102.603 70.436C102.207 70.5619 101.78 70.6878 101.494 71.0182C100.861 71.7106 100.813 72.7176 100.813 73.583C100.813 74.417 100.75 75.2824 100.924 76.1006C101.542 76.1006 102.144 75.9118 102.746 75.9905C103.538 76.2737 103.633 77.3594 103.237 77.9888C102.92 78.4294 102.302 78.4137 101.811 78.4137C100.449 78.3193 99.1018 78.2091 97.7709 78.3193C97.1213 78.335 96.4559 78.4766 95.8221 78.3193C95.014 77.9102 95.0299 76.5727 95.6953 76.0534C96.2974 75.8804 96.9312 76.1636 97.5174 76.022C97.565 74.1652 97.565 72.3242 97.5016 70.4675C96.8361 70.1686 95.9013 70.8924 95.4418 70.1371C94.8873 69.4133 95.3309 68.0443 96.3608 68.0915Z" fill="#025193"/>
<path fill-rule="evenodd" clip-rule="evenodd" d="M55.9896 74.5271C55.1657 74.8261 55.2133 76.0692 54.326 76.2265C53.5496 76.3681 52.6307 76.258 52.1236 75.6286C51.68 75.1093 51.6325 74.3855 51.6008 73.7404C53.5179 73.7247 55.4351 73.7404 57.3522 73.7404C57.6374 73.7247 57.9543 73.7404 58.2237 73.6145C58.6832 73.1582 58.5406 72.4501 58.5089 71.8679C58.3821 70.5619 57.6691 69.3189 56.5442 68.6108C55.2291 67.8555 53.6605 67.7611 52.187 67.9814C50.3808 68.2646 48.7964 69.6808 48.3527 71.4746C47.9566 73.0795 48.0358 74.889 48.9231 76.3524C49.6836 77.6112 51.0779 78.4137 52.5198 78.571C54.0408 78.7284 55.7044 78.634 57.0512 77.8315C57.7008 77.4381 58.3029 76.8244 58.4138 76.0377C58.4613 75.5971 58.4297 75.0936 58.0811 74.7946C57.4948 74.2911 56.6551 74.2754 55.9896 74.5271ZM52.2187 70.6249C52.7733 70.0427 53.7398 70.0112 54.4369 70.3416C54.9756 70.6406 55.1341 71.3015 55.1974 71.8837C54.0408 71.9151 52.8525 71.9151 51.68 71.8837C51.7592 71.4273 51.8701 70.9396 52.2187 70.6249Z" fill="#025193"/>
<path fill-rule="evenodd" clip-rule="evenodd" d="M79.7717 72.3715C79.6291 70.9396 78.8845 69.555 77.6644 68.7525C76.4286 67.9185 74.86 67.7612 73.4023 67.95C71.3584 68.1546 69.5997 69.791 69.2511 71.7893C68.9026 73.5674 69.1244 75.6287 70.3919 77.0291C71.3743 78.1463 72.9112 78.6655 74.3847 78.6341C75.8265 78.6655 77.3634 78.2722 78.3616 77.2022C79.645 75.9748 79.9777 74.0709 79.7717 72.3715ZM76.2226 75.0779C75.7314 76.3525 73.7826 76.5885 72.9429 75.5343C72.2932 74.7475 72.2616 73.6775 72.3091 72.7177C72.3725 71.8995 72.6735 71.0026 73.4182 70.562C74.3847 70.0428 75.7473 70.3889 76.2226 71.4117C76.7296 72.5604 76.7455 73.945 76.2226 75.0779Z" fill="#025193"/>
<path fill-rule="evenodd" clip-rule="evenodd" d="M24.2535 76.3838C23.8099 76.1163 23.2554 76.1163 22.7959 75.9275C22.6533 74.055 22.8592 72.1825 22.6533 70.3258C22.6057 69.6649 22.273 69.0041 21.6868 68.6264C20.7361 68.0128 19.5636 67.8869 18.4545 67.8869C17.2187 67.8554 15.9195 67.9341 14.8104 68.5792C14.0023 69.0198 13.6379 70.137 14.0657 70.9552C14.6678 71.915 16.0779 71.9465 16.981 71.4273C17.5673 71.1126 17.3296 70.3573 17.4564 69.8223C17.9317 69.7279 18.4387 69.5863 18.8982 69.8066C19.3418 69.9954 19.5636 70.4832 19.5636 70.9395C19.421 71.443 18.9299 71.7262 18.4704 71.8678C17.393 72.214 16.2363 72.2612 15.1589 72.6074C14.4935 72.7805 13.828 73.1109 13.4478 73.6931C12.9566 74.4169 12.9249 75.3295 13.0358 76.1792C13.2418 77.4066 14.3509 78.3035 15.555 78.5395C17.2028 78.8227 18.9932 78.5709 20.3559 77.5482C21.0847 78.6496 22.6216 78.9643 23.7782 78.3664C24.507 78.0202 24.6972 76.9974 24.2535 76.3838ZM19.0408 75.9275C18.5021 76.4625 17.5673 76.5569 16.886 76.2264C16.2363 75.896 16.2205 74.7946 16.9018 74.5113C17.7416 74.1809 18.6447 74.0707 19.4844 73.7718C19.4844 74.5113 19.5636 75.3295 19.0408 75.9275Z" fill="#025193"/>
</svg>
