<svg width="144" height="31" viewBox="0 0 144 31" fill="none" xmlns="http://www.w3.org/2000/svg">
<path d="M40.5282 15.9795H44.3953L42.8569 10.8102L40.5282 15.9795ZM38.3569 5.12891H48.1444C48.9347 7.49703 49.7616 9.82578 50.5913 12.1152C51.6572 15.1133 52.5263 17.442 53.1563 19.1408C53.3925 19.7314 53.6288 20.3642 53.8678 20.9942L53.6288 26.1608H47.236C47.0391 25.3705 46.8028 24.5436 46.5244 23.7139C46.1307 22.648 45.8916 21.8605 45.6947 21.3064H38.1572L36.031 26.1608H27.0703C28.9238 23.0023 30.8982 19.5317 32.9119 15.7433C34.7682 12.3908 36.5428 8.83859 38.3569 5.12891Z" fill="#004A91"/>
<path d="M128.689 15.9795H132.556L131.017 10.8102L128.689 15.9795ZM126.478 5.12891H136.266C137.056 7.49703 137.883 9.82578 138.712 12.1152C139.778 15.1133 140.647 17.442 141.277 19.1408C142.186 21.5089 143.092 23.8377 144 26.1664H135.397C135.2 25.3761 134.963 24.5492 134.685 23.7195C134.331 22.6536 134.052 21.8661 133.855 21.312H126.318L124.189 26.1608H115.231C117.084 23.0023 119.059 19.5317 121.072 15.7433C122.887 12.3908 124.703 8.83859 126.478 5.12891Z" fill="#004A91"/>
<path d="M90.2503 5.16846H100.628C100.747 5.88002 101.022 7.73346 101.497 10.6922C101.891 13.0997 102.167 14.9925 102.288 16.3341C102.721 14.5594 103.314 12.2306 104.141 9.35064C104.813 6.98252 105.207 5.60158 105.286 5.20783H115.94C115.94 7.45783 115.9 9.78658 115.782 12.1941C115.664 14.5622 115.546 17.0878 115.428 19.6922C115.31 22.2966 115.27 24.5072 115.27 26.2425H108.323C108.323 24.7435 108.363 23.0869 108.481 21.1913C108.717 16.6913 108.875 13.89 108.875 12.7453L105.047 26.2425H98.1422L95.9315 12.7453C95.6953 14.8772 95.4984 17.1666 95.3381 19.5713C95.1806 21.9788 95.1018 24.1894 95.1018 26.2003H88.4728C88.7484 23.8716 89.024 21.4641 89.3418 19.0172C89.6175 16.5703 89.8537 14.2022 90.0534 11.9128C90.1715 9.58689 90.2503 7.33971 90.2503 5.16846Z" fill="#004A91"/>
<path d="M77.5828 5.16846H86.0681C85.4775 12.2335 85.1597 19.2563 85.1597 26.2031H77.6615L76.635 25.2553C76.6744 23.52 76.7531 21.6244 76.8712 19.4925C77.0287 16.9669 77.1862 14.3625 77.3437 11.64C77.504 8.87814 77.5828 6.74627 77.5828 5.16846Z" fill="#004A91"/>
<path d="M1.81406 5.16846H12.1922C12.3103 5.88002 12.5859 7.73346 13.0613 10.6922C13.455 13.0997 13.7334 14.9925 13.8516 16.3341C14.2847 14.5594 14.8781 12.2306 15.705 9.35064C16.3772 6.98252 16.7709 5.60158 16.8891 5.20783H27.5428C27.5428 7.45783 27.4641 9.78658 27.3853 12.1941C27.2672 14.5622 27.1491 17.0878 27.0309 19.6922C26.9128 22.2966 26.8734 24.5072 26.8734 26.2425H19.89C19.89 24.7435 19.9294 23.0869 20.0475 21.1913C20.2838 16.6913 20.4413 13.89 20.4413 12.7453L16.6134 26.2425H9.70875L7.49813 12.706C7.26188 14.8378 7.065 17.1244 6.9075 19.5319C6.75 21.9394 6.67125 24.15 6.67125 26.161H0C0.275625 23.8322 0.55125 21.4247 0.829688 18.9778C1.10531 16.531 1.34156 14.1628 1.54125 11.8735C1.73531 9.58689 1.81406 7.33971 1.81406 5.16846Z" fill="#004A91"/>
<path d="M76.1232 26.3999L75.3723 27.1509C75.1754 27.1115 75.0573 27.1115 74.8998 27.1115C74.6241 27.1115 74.3879 27.269 74.1488 27.584C74.0307 27.7809 74.1882 28.0565 74.5032 28.4137C74.6213 28.5712 75.0151 28.8468 75.6479 29.3221V29.4403C75.6479 29.5584 75.6873 29.9128 75.8054 30.5456C73.6735 30.5456 71.7413 30.1124 70.0819 29.2828C69.016 28.7709 67.3988 27.6262 65.1882 25.9275C64.201 25.0978 63.3741 24.3103 62.7413 23.5987C62.0691 22.8871 61.3998 22.0209 60.7276 20.9549L54.6497 25.9668L54.8073 22.1784L58.7926 17.324C58.0416 16.5337 57.4116 15.6281 56.8576 14.6803C56.4638 13.8899 56.146 13.1024 55.9098 12.3515C55.6735 11.6006 55.4766 10.8131 55.3979 10.0228C55.5554 9.66838 55.6735 9.43213 55.6735 9.27182L55.516 8.59963L61.2001 2.79744L65.7394 10.2168L74.3823 0.747128C74.5791 0.550253 74.6973 0.432129 74.8154 0.432129C75.0516 0.432129 75.1698 0.90463 75.1698 1.85244C75.1698 2.64276 75.1304 3.43025 75.0123 4.25994C74.8941 5.08963 74.8154 5.68025 74.8154 5.99525C74.5004 7.61244 73.2769 9.27182 71.1844 11.0071C69.7641 12.1518 68.7769 13.1784 68.1469 14.0053C68.3438 14.4778 68.5407 14.8743 68.6588 15.1499C69.4885 16.8853 70.2366 18.3056 70.8301 19.2928C71.6991 20.7524 72.526 22.0153 73.3163 23.0418C73.9941 24.0712 74.9785 25.1765 76.1232 26.3999Z" fill="#ED1921"/>
</svg>
