<svg width="93" height="138" viewBox="0 0 93 138" fill="none" xmlns="http://www.w3.org/2000/svg">
<path d="M5.79358 24.7892C3.80735 20.8793 2.78085 16.5526 2.79907 12.1671" stroke="#FFC700" stroke-width="4" stroke-miterlimit="10" stroke-linecap="round" stroke-linejoin="round"/>
<path d="M5.79356 24.7892C7.81318 28.7646 8.86554 33.1605 8.86542 37.6194" stroke="#FFC700" stroke-width="4" stroke-miterlimit="10" stroke-linecap="round" stroke-linejoin="round"/>
<path d="M90.8478 12.1671C90.8661 16.5526 89.8396 20.8793 87.8533 24.7892" stroke="#FFC700" stroke-width="4" stroke-miterlimit="10" stroke-linecap="round" stroke-linejoin="round"/>
<path d="M84.7813 37.6192C84.7812 33.1603 85.8337 28.7643 87.8532 24.7889" stroke="#FFC700" stroke-width="4" stroke-miterlimit="10" stroke-linecap="round" stroke-linejoin="round"/>
<path d="M2.799 2H90.8477V12.2821H2.799V2Z" stroke="#FFC700" stroke-width="4" stroke-miterlimit="10" stroke-linecap="round" stroke-linejoin="round"/>
<path d="M8.86523 100.486L8.8639 37.9017" stroke="#FFC700" stroke-width="4" stroke-miterlimit="10" stroke-linecap="round" stroke-linejoin="round"/>
<path d="M2.79907 125.833C2.78085 121.447 3.80735 117.121 5.79358 113.211" stroke="#FFC700" stroke-width="4" stroke-miterlimit="10" stroke-linecap="round" stroke-linejoin="round"/>
<path d="M8.86542 100.381C8.86554 104.84 7.81318 109.236 5.79356 113.211" stroke="#FFC700" stroke-width="4" stroke-miterlimit="10" stroke-linecap="round" stroke-linejoin="round"/>
<path d="M84.7814 100.381V37.6193" stroke="#FFC700" stroke-width="4" stroke-miterlimit="10" stroke-linecap="round" stroke-linejoin="round"/>
<path d="M87.8533 113.211C89.8396 117.121 90.8661 121.447 90.8478 125.833" stroke="#FFC700" stroke-width="4" stroke-miterlimit="10" stroke-linecap="round" stroke-linejoin="round"/>
<path d="M87.8532 113.211C85.8337 109.236 84.7811 104.84 84.7813 100.381" stroke="#FFC700" stroke-width="4" stroke-miterlimit="10" stroke-linecap="round" stroke-linejoin="round"/>
<path d="M2.799 125.718H90.8477V136H2.799V125.718Z" stroke="#FFC700" stroke-width="4" stroke-miterlimit="10" stroke-linecap="round" stroke-linejoin="round"/>
</svg>
