<svg width="348" height="134" viewBox="0 0 348 134" fill="none" xmlns="http://www.w3.org/2000/svg">
<path d="M213.258 43.6192C222.292 43.6192 229.615 36.2959 229.615 27.262C229.615 18.228 222.292 10.9048 213.258 10.9048C204.224 10.9048 196.9 18.228 196.9 27.262C196.9 36.2959 204.224 43.6192 213.258 43.6192ZM213.258 16.7464C219.056 16.7464 223.773 21.4634 223.773 27.262C223.773 33.0606 219.056 37.7776 213.258 37.7776C207.46 37.7776 202.743 33.0606 202.743 27.262C202.743 21.4634 207.46 16.7464 213.258 16.7464Z" fill="#FFC700"/>
<path d="M201.123 49.512C202.444 50.8486 203.666 52.2819 204.78 53.8004C207.37 52.6342 210.238 51.9793 213.257 51.9793C224.682 51.9793 233.976 61.2743 233.976 72.6977C233.976 73.9381 233.86 75.1526 233.65 76.3331H239.172C239.337 75.1445 239.429 73.9327 239.429 72.6977C239.429 58.2441 227.711 46.5269 213.257 46.5269C208.877 46.5275 204.751 47.6092 201.123 49.512Z" fill="#FFC700"/>
<path d="M201.262 76.3336H206.715C206.715 58.2657 192.068 43.6191 174 43.6191C155.932 43.6191 141.286 58.2657 141.286 76.3336H146.738C146.738 61.3006 158.968 49.0715 174 49.0715C189.033 49.0715 201.262 61.3006 201.262 76.3336Z" fill="#FFC700"/>
<path d="M174 38.1668C184.54 38.1668 193.084 29.6229 193.084 19.0834C193.084 8.54392 184.54 0 174 0C163.461 0 154.917 8.54392 154.917 19.0834C154.917 29.6229 163.461 38.1668 174 38.1668ZM174 5.11163C181.705 5.11163 187.972 11.3792 187.972 19.0834C187.972 26.7877 181.705 33.0552 174 33.0552C166.296 33.0552 160.029 26.7877 160.029 19.0834C160.029 11.3792 166.296 5.11163 174 5.11163Z" fill="#FFC700"/>
<path d="M114.35 76.3336C114.14 75.1531 114.024 73.9386 114.024 72.6982C114.024 61.274 123.318 51.9797 134.743 51.9797C137.763 51.9797 140.631 52.6347 143.221 53.8008C144.335 52.2824 145.557 50.8491 146.878 49.5125C143.25 47.609 139.124 46.5273 134.743 46.5273C120.289 46.5273 108.572 58.2445 108.572 72.6982C108.572 73.9332 108.664 75.145 108.828 76.3336H114.35Z" fill="#FFC700"/>
<path d="M134.743 43.6192C143.777 43.6192 151.1 36.2959 151.1 27.262C151.1 18.228 143.777 10.9048 134.743 10.9048C125.709 10.9048 118.386 18.228 118.386 27.262C118.386 36.2959 125.709 43.6192 134.743 43.6192ZM134.743 16.7464C140.541 16.7464 145.259 21.4634 145.259 27.262C145.259 33.0606 140.542 37.7776 134.743 37.7776C128.944 37.7776 124.227 33.0606 124.227 27.262C124.227 21.4634 128.945 16.7464 134.743 16.7464Z" fill="#FFC700"/>
</svg>
