<svg width="110" height="39" viewBox="0 0 110 39" fill="none" xmlns="http://www.w3.org/2000/svg">
<g clip-path="url(#clip0_332_97)">
<path fill-rule="evenodd" clip-rule="evenodd" d="M0 25.9003L27.9644 0H37.7194V39H27.4061V33.3867H9.88163L20.028 23.9991H27.5615V13.9572L0 39V25.9003Z" fill="#ED1C24"/>
<path fill-rule="evenodd" clip-rule="evenodd" d="M39.9985 0H75.8762L66.0406 9.62448H58.9963V39H48.5219V9.62448H39.9985V0Z" fill="#ED1C24"/>
<path fill-rule="evenodd" clip-rule="evenodd" d="M69.252 9.47215L79.0013 0H109.757L99.9386 9.62448H79.1452V29.5278H91.5073C92.1509 29.5279 92.7684 29.278 93.2246 28.8329C93.6808 28.3878 93.9387 27.7837 93.9417 27.1528V26.7748C93.9387 26.1438 93.6808 25.5397 93.2246 25.0946C92.7684 24.6495 92.1509 24.3997 91.5073 24.3997H81.2746V14.9275H95.5359C95.5359 14.9275 103.691 16.62 103.691 26.9666C103.691 37.3132 95.5014 39 95.5014 39H69.2347L69.252 9.47215Z" fill="#ED1C24"/>
</g>
<defs>
<clipPath id="clip0_332_97">
<rect width="109.757" height="39" fill="white"/>
</clipPath>
</defs>
</svg>
