<svg width="112" height="43" viewBox="0 0 112 43" fill="none" xmlns="http://www.w3.org/2000/svg">
<path d="M45.6546 0.0736605C40.5735 0.205391 37.0168 3.68685 35.3419 5.73809C35.3419 5.73809 35.2667 5.83219 35.2102 5.90746C35.0973 5.86982 35.0032 5.83219 35.0032 5.83219C31.5217 4.57133 27.5886 4.34551 23.6179 5.1359C19.8165 5.92628 14.3214 7.88342 10.3695 11.1014C3.38775 16.747 -0.300722 23.5218 0.0191957 30.2212C0.207383 34.0979 1.97634 37.4476 5.17552 39.9129C10.4071 43.9589 19.0637 43.0368 22.5452 42.4534C26.4407 41.7947 87.3757 30.8799 95.3548 29.3556C102.638 27.963 109.563 25.4977 110.956 16.8976C111.031 16.3895 111.087 15.8626 111.087 15.3545V15.2792C111.087 13.1715 110.429 11.2143 109.281 9.87821C107.154 7.41296 103.56 7.11186 101.038 7.11186C97.5754 7.09304 60.1826 7.82697 55.9296 7.90225C55.9296 7.90225 55.7979 7.90225 55.6473 7.90225C55.6285 7.77051 55.6097 7.61997 55.6097 7.61997C55.3839 5.90746 54.6876 4.36433 53.6149 3.14111C52.354 1.67325 49.9264 -0.0392518 45.6546 0.0736605Z" fill="#F47B20"/>
<path d="M45.6169 12.5317C47.7435 12.4376 49.8135 11.4779 49.9829 9.2949C50.0958 7.82704 48.9667 6.30273 46.6332 6.15218C45.3347 6.0769 44.1679 6.378 43.3211 7.03666C42.6812 7.52594 42.2296 8.1846 42.0226 9.03144C41.7968 9.9912 41.8908 10.7816 42.3613 11.4026C42.9635 12.193 44.1303 12.607 45.6169 12.5317Z" fill="white"/>
<path d="M106.42 16.1258C106.119 16.8033 105.479 17.4995 104.934 17.5936L104.689 17.6501C104.689 17.6501 104.915 16.1634 104.915 15.7118C104.952 13.6605 104.482 11.534 101.283 11.7034C99.3255 11.8163 96.4651 13.51 96.0323 17.1796V17.1985V17.2173C96.0323 17.2361 96.0134 17.2549 96.0134 17.2925C95.5241 18.5722 94.6397 20.36 93.9998 20.4353C93.8681 20.4541 93.7364 20.3976 93.6423 20.3035C93.5105 20.1906 93.4541 20.0024 93.4729 19.7766C93.4917 19.3814 93.6423 18.7792 93.8305 17.9888C94.0939 16.9538 94.3009 15.9941 94.4138 14.9214C94.6397 12.4185 93.1153 11.9292 91.5346 12.0421C90.3678 12.1362 89.2763 12.8325 88.9752 13.1712L88.4107 13.8111C88.4107 13.8111 88.6741 12.5879 88.7494 12.2491C88.2978 12.2679 85.475 12.362 85.1927 12.3809L83.9318 17.4619C83.499 18.0453 82.878 18.5158 82.3887 18.6663L82.144 18.7228L82.1064 18.4593C82.0688 18.1958 82.0499 17.9512 81.9747 17.6877C81.8994 17.1232 81.4101 15.166 79.5094 15.3166C74.6166 15.7306 74.7483 21.7902 77.684 20.9434L78.0227 20.8305L77.9663 21.2068C77.5899 23.6156 76.5361 24.8953 75.1435 25.0835C74.9365 25.1211 74.7295 25.0459 74.5789 24.8953C74.3343 24.6695 74.2025 24.2178 74.2025 23.6909C74.2402 22.5053 76.5925 12.6443 76.5925 12.6443C76.5925 12.6443 72.3583 12.7949 72.0384 12.8137C71.8314 13.717 70.8904 17.6313 70.8716 17.6501L70.7399 18.177C70.5517 18.8357 70.4388 19.2873 70.3635 19.739V19.7578V19.7766C70.3447 19.8142 70.3447 19.8331 70.3259 19.8519C69.6108 21.7149 68.3687 23.7285 67.409 23.8226C67.2208 23.8415 67.0514 23.785 66.9385 23.6721C66.8068 23.5404 66.7315 23.3522 66.7315 23.1263V23.1075L66.8068 22.2983C66.8068 22.2983 69.2344 13.4723 69.385 12.889C68.8392 12.9078 64.191 13.0019 64.191 13.0019L63.7393 14.6203C63.6076 13.3218 60.8601 11.5528 58.7712 13.4159C56.5694 15.3919 55.9672 18.3652 55.6285 21.2821C55.6285 21.2821 55.5908 21.395 55.5908 21.4138C55.1392 24.9329 54.3112 27.3417 51.8647 27.6617C51.319 27.7369 50.8109 27.6993 50.4533 27.4923C51.3002 26.8524 51.8271 26.3255 52.2223 25.6481C53.1256 24.1426 52.7116 22.8252 51.7706 22.1854C49.8699 20.9434 47.7999 22.4677 47.4235 24.406C47.1977 25.5916 47.6117 26.589 47.9693 27.1724C47.3106 27.5487 46.7837 27.9628 45.8804 28.0757C45.3346 28.1509 44.8077 27.8687 44.6384 27.624C44.0926 26.8901 44.8265 24.5378 44.9394 24.2367C44.9394 24.2367 48.308 14.2439 48.4962 13.6229C47.9128 13.6605 41.7214 13.8487 41.4203 13.8675C41.2133 14.4886 40.423 16.935 39.6138 19.1932C38.033 23.5968 33.4224 29.6376 28.6989 30.8608C26.1772 31.5195 24.22 31.4066 22.9592 30.635C21.2467 29.5812 20.2869 27.0783 20.9456 23.5592C21.3972 21.0751 21.8301 20.153 22.4887 18.7416C26.4595 10.3108 32.8202 12.2115 32.425 12.8513C31.7852 13.0583 31.2206 13.3971 31.2206 13.3971C30.2044 13.9428 28.5672 15.5236 28.5107 17.5184C28.4731 18.798 28.8118 19.8143 29.5081 20.4917C30.1856 21.1504 31.183 21.4515 32.3121 21.3574C34.8338 21.1316 36.8662 19.2309 36.9603 16.4269C36.998 14.9026 36.5839 13.6605 35.6995 12.7384C34.2881 11.2706 32.632 10.5178 28.9435 10.6307C23.2603 10.7813 14.5849 14.8649 12.1008 23.8979C11.2539 26.9465 12.3643 30.635 14.1897 32.3099C16.7302 34.6246 19.8729 35.4902 25.3868 34.4364C30.2985 33.5143 34.3257 30.1645 37.2991 26.6454C37.2991 26.7019 37.299 26.7584 37.2802 26.8148C36.5839 29.393 37.5437 32.1405 41.8344 31.5948C43.641 31.3689 46.8025 30.3339 49.0043 28.6214C50.0205 29.5059 51.7706 30.014 53.7654 29.7317C54.5746 29.6 56.6823 29.0542 58.5077 26.4196C59.9756 24.3307 60.6907 20.2659 61.0859 18.0829C61.2741 17.0667 61.387 16.3892 61.5375 16.107C61.6693 15.8435 61.801 15.5236 62.1774 15.3542C62.949 15.0343 63.3442 15.787 63.1936 16.3328C63.043 16.8785 62.2338 19.7013 62.2338 19.7013L62.0833 20.153C61.6128 21.5268 61.0859 23.0699 61.0294 24.7071C60.9918 25.9115 61.3117 26.8525 61.9327 27.4358C62.5161 27.9816 63.3442 28.1886 64.3227 28.0568C67.0326 27.6617 68.9709 24.9141 69.8742 23.3145L70.006 23.0887L70.1942 22.7688L70.3071 23.371C70.7399 25.761 72.6218 26.7207 75.4446 26.3067C79.1142 25.761 81.3348 23.8603 82.0123 20.5482L82.0499 20.4164L82.1817 20.3788C82.5204 20.2471 82.8592 20.0777 83.1979 19.8519L83.4802 19.6637L82.1817 24.9706C82.7086 24.8953 86.1524 24.3119 86.4159 24.2743C86.4912 23.9544 87.9967 17.5184 87.9967 17.5184C88.2601 16.3892 88.9752 14.2815 89.8033 14.2251C89.9538 14.2063 90.1044 14.2627 90.2361 14.4133C90.4243 14.6015 90.5184 14.9026 90.5184 15.2601C90.4995 15.9752 90.2925 16.7468 90.0291 17.6501C89.728 18.7416 89.4081 20.0965 89.2763 21.4138C89.0693 23.6533 90.9512 23.6344 91.5158 23.5404C92.8519 23.3334 94.6208 22.6559 96.1264 19.325L96.2016 19.6825C96.578 21.5268 98.234 22.6182 99.9465 22.336C102.073 22.016 103.503 20.8681 104.312 18.9486L104.369 18.8169L104.501 18.798C105.329 18.7039 106.477 17.7442 106.778 16.6151C106.59 16.5586 106.571 16.3328 106.42 16.1258ZM50.2087 23.2016C50.9614 23.2393 51.2625 23.7097 50.8485 24.6318C50.6415 25.0835 50.0581 25.7798 49.2678 26.3632C48.308 24.8388 49.2301 23.1452 50.2087 23.2016ZM78.3803 19.1744C78.2486 19.3814 77.9286 19.5132 77.4394 19.5884C76.9313 19.6825 76.8183 19.4002 76.7995 19.2873C76.6866 18.8357 77.1759 18.1394 77.5899 17.9324C77.8346 17.8195 78.1168 17.8759 78.1921 17.97C78.5497 18.3652 78.3803 19.1744 78.3803 19.1744ZM101.734 18.9674C101.433 19.8895 101.019 20.8681 100.191 20.981C99.9089 21.0186 99.6831 20.9434 99.4949 20.7928C99.2126 20.5482 99.0997 20.3224 99.1185 19.4755C99.1562 17.5184 100.191 12.6067 101.584 12.5502C101.772 12.5314 101.96 12.6067 102.092 12.7572C102.393 13.0772 102.506 13.6982 102.412 14.4321L102.393 14.5262C102.393 14.5262 100.925 14.5826 100.775 16.7468C100.68 18.0453 101.772 18.6663 101.772 18.6663L101.734 18.9674ZM102.13 17.5184C101.659 17.2173 101.678 16.3704 101.923 16.0505C102.054 15.8811 102.242 15.8623 102.355 15.9188C102.337 16.4457 102.318 16.9162 102.13 17.5184Z" fill="white"/>
</svg>
