<svg width="28" height="28" viewBox="0 0 28 28" fill="none" xmlns="http://www.w3.org/2000/svg">
<path d="M14 28C21.732 28 28 21.732 28 14C28 6.26801 21.732 0 14 0C6.26801 0 0 6.26801 0 14C0 21.732 6.26801 28 14 28Z" fill="#760C27"/>
<path d="M22.0227 7.49185C20.1051 4.80769 17.1007 3.55345 13.3356 3.86465C7.6267 4.33694 3.37407 9.41286 3.85532 15.1798C4.08831 17.9701 5.38209 20.5053 7.49836 22.3186C9.20994 23.7852 11.2935 24.6381 13.489 24.7926C14.0146 24.8297 14.5468 24.8264 15.0816 24.7823C16.5743 24.6589 17.9887 24.2256 19.2858 23.4942L18.2199 21.6209C17.1971 22.1975 16.0809 22.5395 14.9026 22.6368C12.7161 22.8176 10.5878 22.1253 8.90942 20.687C7.22584 19.2445 6.19642 17.2254 6.01077 15.0015C5.62806 10.4174 8.99425 6.38376 13.5145 6.01002C16.519 5.76101 18.7887 6.67977 20.26 8.73915C21.7212 10.7847 21.8889 15.3372 20.0527 17.0175C19.4297 17.5876 18.8577 17.4609 18.5721 17.335C18.0274 17.0945 17.6785 16.5169 17.6837 15.8638C17.7004 13.7244 17.9061 10.9363 17.9082 10.9082L17.965 10.1456L17.2603 9.84126C14.9329 8.83591 12.7343 8.96089 11.0696 10.1932C9.42299 11.4126 8.52791 13.6194 8.78926 15.8154C8.95568 17.213 9.8319 18.494 11.0762 19.159C12.2415 19.7817 13.5678 19.7806 14.811 19.1562C15.3681 18.8763 15.8297 18.4912 16.2073 18.0767C16.5791 18.6064 17.0871 19.0345 17.6948 19.3028C18.9855 19.8728 20.4141 19.6108 21.5165 18.6021C24.2186 16.1301 24.0502 10.3298 22.0227 7.49185ZM15.5337 15.0789C15.3844 15.4781 14.8498 16.7259 13.8366 17.2348C13.2248 17.5422 12.6404 17.5515 12.0996 17.2625C11.4865 16.9349 11.0196 16.2518 10.9375 15.5624C10.7654 14.1179 11.3243 12.6884 12.361 11.9208C12.9718 11.4685 13.7106 11.2713 14.5459 11.3301C14.9119 11.3559 15.2963 11.4308 15.6967 11.555C15.6429 12.3954 15.5648 13.7685 15.5337 15.0789Z" fill="white"/>
</svg>
