<svg width="28" height="28" viewBox="0 0 28 28" fill="none" xmlns="http://www.w3.org/2000/svg">
<path d="M14 28C21.732 28 28 21.732 28 14C28 6.26801 21.732 0 14 0C6.26801 0 0 6.26801 0 14C0 21.732 6.26801 28 14 28Z" fill="#760C27"/>
<path d="M14.0001 4.66675C9.70525 4.66675 6.22226 7.93664 6.22226 11.9686C6.22226 17.08 10.4548 21.2235 14.0001 23.3334C17.5452 21.2235 21.7778 17.08 21.7778 11.9686C21.7778 7.93664 18.2948 4.66675 14.0001 4.66675ZM14.0001 15.4805C11.9334 15.4805 10.2593 13.9089 10.2593 11.9686C10.2593 10.0284 11.9334 8.45682 14.0001 8.45682C16.0668 8.45682 17.7408 10.0285 17.7408 11.9686C17.7408 13.909 16.0667 15.4805 14.0001 15.4805Z" fill="white"/>
</svg>
