<svg width="150" height="81" viewBox="0 0 150 81" fill="none" xmlns="http://www.w3.org/2000/svg">
<path d="M115.032 34.9026H98.6457C97.5773 34.9026 96.713 35.7685 96.713 36.8352C96.713 46.9704 105.244 57.1977 124.301 57.1977C132.237 57.1977 137.816 56.0248 141.862 53.5091C146.934 50.3546 149.504 45.0127 149.504 37.631C149.504 26.8136 137.899 24.3033 132.321 23.096C131.767 22.977 128.661 22.3302 127.621 22.1635C122.762 21.3835 122.114 20.7541 122.114 18.6699C122.114 16.7707 123.957 16.3872 125.084 16.3872C126.192 16.3872 127.964 16.6404 128.306 18.6651C128.577 20.2637 128.914 20.6131 130.005 20.6131C130.445 20.6131 140.141 21.2084 146.054 21.2084C147.121 21.2084 147.987 20.3435 147.987 19.2758C147.987 12.6046 145.202 7.31704 139.934 3.98497C134.726 0.691514 128.361 0 123.94 0C116.995 0 108.342 0.708249 103.033 6.23231C99.9144 9.47878 98.4449 13.9416 98.6662 19.4969C98.9214 25.9119 104.193 28.5866 113.228 32.3537C117.899 34.3015 126.626 35.7299 126.012 39.2251C125.772 40.584 124.554 41.3527 121.389 41.085C117.955 40.7938 117.308 37.4025 116.96 36.329C116.959 36.3287 116.955 34.9026 115.032 34.9026Z" fill="white"/>
<path d="M53.4853 14.9317C60.8223 15.6457 66.5458 21.4916 66.5458 28.5998C66.5458 35.9551 60.4181 41.9599 52.7143 42.3238C52.7143 42.3238 51.0916 42.4024 51.0916 43.8021C51.0916 45.2025 51.0916 53.8916 51.0916 53.8916C51.0916 54.9593 51.9568 55.8243 53.0242 55.8243H72.2482C73.3152 55.8243 74.1808 54.9593 74.1808 53.8916C74.1808 53.8916 74.1808 43.1573 74.1808 41.7878C74.1808 40.4195 75.5609 40.5074 75.5609 40.5074H91.0513C91.8168 40.5074 92.6821 39.6424 92.6821 38.5748V24.8517C92.6821 23.7846 91.8168 22.9187 90.7494 22.9187H81.485H75.1825C74.2651 22.9187 73.5208 22.1751 73.5208 21.2577C73.5208 20.3396 74.2648 19.5953 75.1825 19.5953H81.485H94.8686C95.9356 19.5953 96.8012 18.7304 96.8012 17.6633V3.30632C96.8012 2.23929 95.9359 1.37305 94.8686 1.37305H53.0242C51.9571 1.37305 51.0916 2.23896 51.0916 3.30632C51.0916 3.30632 51.0916 10.9197 51.0916 12.9415C51.0916 14.9642 53.4853 14.9317 53.4853 14.9317Z" fill="white"/>
<path d="M46.574 12.9896C46.574 10.9376 46.574 3.30583 46.574 3.30583C46.574 2.2388 45.7097 1.37256 44.6414 1.37256H2.07491C1.00787 1.37256 0.142273 2.23848 0.142273 3.30583V53.8915C0.142273 54.9592 1.00755 55.8241 2.07491 55.8241H44.6414C45.7097 55.8241 46.574 54.9592 46.574 53.8915C46.574 53.8915 46.574 45.0769 46.574 43.7302C46.574 42.3835 45.1022 42.2928 45.1022 42.2928H41.3412L25.511 42.2934C24.0341 42.2934 22.8364 41.0954 22.8364 39.6181C22.8364 38.1399 24.0344 36.9425 25.511 36.9425L41.4255 36.9457H41.3035C42.8703 36.9457 44.1391 35.6763 44.1391 34.1102C44.1391 32.5434 42.8703 31.2736 41.3035 31.2736L41.4255 31.2753V31.2736H25.511C24.0341 31.2736 22.8364 30.076 22.8364 28.5987C22.8364 27.1204 24.0344 25.9233 25.511 25.9233L41.4255 25.923H41.3035C42.8703 25.923 44.1391 24.6533 44.1391 23.0871C44.1391 21.521 42.8703 20.2516 41.3035 20.2516H41.4255H36.3516H25.511C24.0341 20.2516 22.8364 19.0533 22.8364 17.5763C22.8364 16.0996 24.0344 14.9023 25.511 14.9023H44.8345C44.8345 14.9013 46.574 15.041 46.574 12.9896Z" fill="white"/>
<path d="M3.45177 74.2597V74.8418H7.23948V77.2979H3.45177V77.88H7.61468V80.5952H0V71.5454H7.61468V74.26L3.45177 74.2597Z" fill="white"/>
<path d="M17.3486 71.5454V76.4452C17.3486 79.367 16.1075 80.8408 13.0049 80.8408C9.90193 80.8408 8.64793 79.367 8.64793 76.4452V71.5454H12.1V76.4452C12.1 77.2464 12.4231 77.6216 13.0049 77.6216C13.5867 77.6216 13.9097 77.2464 13.9097 76.4452V71.5454H17.3486Z" fill="white"/>
<path d="M22.7128 78.177C22.493 78.177 22.2088 78.177 21.963 78.177V80.5949H18.5109V71.5454C18.5109 71.5454 23.0748 71.5454 23.1266 71.5454C25.7507 71.5454 27.0308 72.644 27.0308 74.8675C27.0308 76.0697 26.6559 76.9359 25.9061 77.4788L27.5739 80.5949H23.8766L22.7128 78.177ZM21.963 74.1309V75.5915C22.2603 75.5915 22.5966 75.5915 22.7903 75.5915C23.3592 75.5915 23.6691 75.3972 23.6691 74.8675C23.6691 74.3243 23.3589 74.1309 22.7903 74.1309C22.5966 74.1309 22.2603 74.1309 21.963 74.1309Z" fill="white"/>
<path d="M37.8508 76.0697C37.8508 78.8364 35.7824 80.8404 32.7573 80.8404C29.7322 80.8404 27.6634 78.8361 27.6634 76.0697C27.6634 73.3033 29.7322 71.2996 32.7573 71.2996C35.7824 71.2996 37.8508 73.3033 37.8508 76.0697ZM34.2439 76.0697C34.2439 75.2295 33.6618 74.5444 32.7573 74.5444C31.8524 74.5444 31.2703 75.2295 31.2703 76.0697C31.2703 76.9099 31.9428 77.5949 32.7573 77.5949C33.5714 77.5952 34.2439 76.9102 34.2439 76.0697Z" fill="white"/>
<path d="M46.8088 74.5055V75.2038H50.1184V77.7893H46.8088V80.5949H43.3696V71.5454H50.8553V74.5055H46.8088Z" fill="white"/>
<path d="M61.5205 76.0697C61.5205 78.8364 59.4521 80.8404 56.427 80.8404C53.4019 80.8404 51.3332 78.8361 51.3332 76.0697C51.3332 73.3033 53.4019 71.2996 56.427 71.2996C59.4521 71.2996 61.5205 73.3033 61.5205 76.0697ZM57.9136 76.0697C57.9136 75.2295 57.3315 74.5444 56.427 74.5444C55.5221 74.5444 54.94 75.2295 54.94 76.0697C54.94 76.9099 55.6126 77.5949 56.427 77.5949C57.2411 77.5952 57.9136 76.9102 57.9136 76.0697Z" fill="white"/>
<path d="M72.2494 76.0697C72.2494 78.8364 70.1809 80.8404 67.1559 80.8404C64.1308 80.8404 62.062 78.8361 62.062 76.0697C62.062 73.3033 64.1308 71.2996 67.1559 71.2996C70.1809 71.2996 72.2494 73.3033 72.2494 76.0697ZM68.6425 76.0697C68.6425 75.2295 68.0604 74.5444 67.1559 74.5444C66.251 74.5444 65.6689 75.2295 65.6689 76.0697C65.6689 76.9099 66.3414 77.5949 67.1559 77.5949C67.9703 77.5952 68.6425 76.9102 68.6425 76.0697Z" fill="white"/>
<path d="M82.6298 76.0697C82.6298 78.8621 80.9877 80.5946 77.8983 80.5946C77.8079 80.5946 72.9853 80.5946 72.9853 80.5946V71.5454C72.9853 71.5454 77.8075 71.5454 77.8983 71.5454C80.988 71.5454 82.6298 73.2776 82.6298 76.0697ZM79.0358 76.0697C79.0358 75.2295 78.5705 74.6474 77.4201 74.6474C76.9416 74.6474 76.5539 74.6474 76.4374 74.6474V77.492C76.5535 77.492 76.9413 77.492 77.4201 77.492C78.5705 77.492 79.0358 76.9102 79.0358 76.0697Z" fill="white"/>
<path d="M87.9554 77.5434C88.8863 77.5434 91.2134 77.5434 91.2134 77.5434C91.2134 78.1513 91.7823 78.3453 92.2348 78.3453C92.7129 78.3453 92.9456 78.1902 92.9456 77.9054C92.9456 77.4788 92.3767 77.4015 91.3685 77.1168C89.2354 76.5221 88.3048 75.9146 88.3048 74.4283C88.3048 71.4418 91.0065 71.2996 92.4806 71.2996C94.3424 71.2996 96.4366 72.0236 96.4366 74.4025C95.3766 74.4025 93.2435 74.4025 93.2435 74.4025C93.2435 73.9369 92.8944 73.691 92.4677 73.691C92.0671 73.691 91.8084 73.833 91.8084 74.1824C91.8084 74.6348 92.7654 74.8286 93.6313 75.0358C94.4972 75.2427 96.7082 75.475 96.7082 77.6854C96.7082 80.2709 94.8856 80.8404 92.5453 80.8404C89.1447 80.8404 87.9554 79.0047 87.9554 77.5434Z" fill="white"/>
<path d="M100.896 74.2597V74.8418H104.683V77.2979H100.896V77.88H105.058V80.5952H97.4437V71.5454H105.058V74.26L100.896 74.2597Z" fill="white"/>
<path d="M110.526 78.177C110.307 78.177 110.023 78.177 109.777 78.177V80.5949H106.325V71.5454C106.325 71.5454 110.888 71.5454 110.94 71.5454C113.564 71.5454 114.845 72.644 114.845 74.8675C114.845 76.0697 114.47 76.9359 113.72 77.4788L115.388 80.5949H111.69L110.526 78.177ZM109.777 74.1309V75.5915C110.074 75.5915 110.41 75.5915 110.604 75.5915C111.173 75.5915 111.483 75.3972 111.483 74.8675C111.483 74.3243 111.173 74.1309 110.604 74.1309C110.41 74.1309 110.074 74.1309 109.777 74.1309Z" fill="white"/>
<path d="M125.458 71.5454L122.613 80.5949H117.636L114.792 71.5454H118.696L120.015 77.518H120.248L121.566 71.5454H125.458Z" fill="white"/>
<path d="M129.581 71.5454V80.5949H126.128V71.5454H129.581Z" fill="white"/>
<path d="M137.014 76.6772H140.466C140.285 79.0687 138.359 80.8404 135.644 80.8404C132.619 80.8404 130.55 78.836 130.55 76.0697C130.55 73.3033 132.619 71.2996 135.644 71.2996C138.359 71.2996 140.285 73.0706 140.466 75.4621H137.014C136.833 74.9714 136.497 74.5573 135.747 74.5573C134.881 74.5573 134.312 75.2041 134.312 76.07C134.312 76.9359 134.881 77.5827 135.747 77.5827C136.497 77.5824 136.833 77.1686 137.014 76.6772Z" fill="white"/>
<path d="M144.654 74.2597V74.8418H148.442V77.2979H144.654V77.88H148.817V80.5952H141.202V71.5454H148.817V74.26L144.654 74.2597Z" fill="white"/>
<path d="M150 62.675H0.142273V65.6918H150V62.675Z" fill="white"/>
</svg>
