<svg width="28" height="28" viewBox="0 0 28 28" fill="none" xmlns="http://www.w3.org/2000/svg">
<path d="M14 28C21.732 28 28 21.732 28 14C28 6.26801 21.732 0 14 0C6.26801 0 0 6.26801 0 14C0 21.732 6.26801 28 14 28Z" fill="#760C27"/>
<path d="M19.7632 17.5398L19.7235 17.5354C19.4615 17.5062 19.0656 17.4621 18.6669 17.4621C17.7818 17.4621 17.2743 17.6894 17.1587 18.1375C17.01 18.7137 16.8839 19.1796 16.835 19.359C16.8147 19.3625 16.7896 19.365 16.759 19.365C16.1256 19.365 14.5536 18.47 12.0413 15.958C9.04917 12.9662 8.57145 11.5472 8.63959 11.165C8.8187 11.1161 9.28489 10.99 9.86154 10.8412C10.7251 10.6184 10.5484 9.03607 10.4635 8.27576L10.4592 8.23685C10.3262 7.03818 10.0563 5.44448 9.24115 5.44458C7.33909 5.47474 6.12444 6.38018 5.63096 8.13568C5.26965 9.42133 5.43734 11.0707 6.10303 12.7798C6.82605 14.636 8.10278 16.5116 9.79515 18.2037C12.5206 20.9287 15.7407 22.5557 18.4089 22.5557C18.9301 22.5557 19.4198 22.4924 19.8642 22.3674C21.62 21.8742 22.5255 20.6597 22.5557 18.7576C22.5686 17.9455 20.9683 17.6737 19.7632 17.5398Z" fill="white"/>
</svg>
